<svg xmlns="http://www.w3.org/2000/svg" xmlns:xlink="http://www.w3.org/1999/xlink" viewBox="0 0 50 50"
    enable-background="new 0 0 50 50">
    <title>Login</title>
    <path style="color: rgb(255, 255, 255);" fill="currentColor"
        d="M35.2 29.9c3.9-3.1 6.4-7.8 6.4-13.2C41.7 7.5 34.2 0 25 0S8.3 7.5 8.3 16.7c0 5.4 2.5 10.1 6.4 13.2C6.1 33.4 0 41.1 0 50h5.6c0-9.1 8.7-16.5 19.4-16.5S44.4 40.9 44.4 50H50c0-8.9-6.1-16.6-14.8-20.1zM25 5.6c6.1 0 11.1 5 11.1 11.2S31.1 28 25 28s-11.1-5-11.1-11.2S18.9 5.6 25 5.6z">
    </path>
</svg>